{"title":"The Client (1994) Tommy Lee Jones (DVDrip, subs ENG ESP PT-BR)","uid":4232809,"size":735027756,"categoryP":"video","categoryS":"movies","magnet":"?xt=urn:btih:b0b6555538a8bdcb9608e37ad0c6c07edb75129f&amp;dn=The+Client+%281994%29+Tommy+Lee+Jones+%28DVDrip%2C+subs+ENG+ESP+PT-BR%29&amp;tr=udp%3A%2F%2Ftracker.openbittorrent.com%3A80&amp;tr=udp%3A%2F%2Fopen.demonii.com%3A1337&amp;tr=udp%3A%2F%2Ftracker.coppersurfer.tk%3A6969&amp;tr=udp%3A%2F%2Fexodus.desync.com%3A6969","seeders":11,"leechers":0,"uploader":"Kuthumi","files":-1,"time":1213136841,"description":" &lt;a href=&quot;http://www.imdb.com/title/tt0109446/&quot; rel=&quot;nofollow&quot; target=&quot;_NEW&quot;&gt;http://www.imdb.com/title/tt0109446/&lt;/a&gt;\n\nOptional English, Spanish and Portugese subtitles in srt format\n\nJohn Grisham's breathtaking drama about a young boy who witnesses a mafia suicide. Fantastic performance by Susan Sarandon (as always), and promising debut by Brad Renfro (then 12).\n\nI found this torrent on the net using PirateBay's tracker, so I thought it should be represented here.\n\nWidescreen 576x256, great stereo sound.\nBurn tested, runs well in my standalone DivX player.\n\n\nFormat/Info                      : Audio Video Interleave\nFile size                        : 701 MiB\nDuration                         : 2h 0mn\nOveral bit rate                  : 811 Kbps\nWriting application              : VirtualDubMod 1.5.4.1 (build 2178/release)\nWriting library                  : VirtualDubMod build 2178/release\n\nVideo\nFormat                           : MPEG-4 Visual\nFormat settings, BVOP            : Yes\nFormat settings, QPel            : No\nFormat settings, GMC             : No warppoints\nFormat settings, Matrix          : Default\nCodec ID                         : DX50\nCodec ID/Hint                    : DivX 5\nDuration                         : 2h 0mn\nBit rate                         : 681 Kbps\nWidth                            : 576 pixels\nHeight                           : 256 pixels\nDisplay aspect ratio             : 2.25\nFrame rate                       : 23.976 fps\nResolution                       : 8 bits\nColorimetry                      : 4:2:0\nScan type                        : Progressive\nBits/(Pixel*Frame)               : 0.193\nStream size                      : 589 MiB\nWriting library                  : DivX 6.6.1.4\n\nAudio\nFormat                           : MPEG Audio\nFormat version                   : Version 1\nFormat profile                   : Layer 3\nCodec ID                         : 55\nCodec ID/Hint                    : MP3\nDuration                         : 2h 0mn\nBit rate mode                    : Variable\nBit rate                         : 117 Kbps\nChannel(s)                       : 2 channels\nSampling rate                    : 48.0 KHz\nResolution                       : 16 bits\nStream size                      : 101 MiB\n","torrent":{"xt":"urn:btih:b0b6555538a8bdcb9608e37ad0c6c07edb75129f","amp;dn":"The+Client+%281994%29+Tommy+Lee+Jones+%28DVDrip%2C+subs+ENG+ESP+PT-BR%29","amp;tr":["udp%3A%2F%2Ftracker.openbittorrent.com%3A80","udp%3A%2F%2Fopen.demonii.com%3A1337","udp%3A%2F%2Ftracker.coppersurfer.tk%3A6969","udp%3A%2F%2Fexodus.desync.com%3A6969"],"infoHash":"b0b6555538a8bdcb9608e37ad0c6c07edb75129f","infoHashBuffer":{"type":"Buffer","data":[176,182,85,85,56,168,189,203,150,8,227,122,208,198,192,126,219,117,18,159]},"announce":[],"urlList":[]}}